<svg xmlns="http://www.w3.org/2000/svg" viewBox="0 0 512 512" width="512" height="512">
  <rect width="512" height="512" rx="64" fill="#3B82F6"/>
  <g fill="white">
    <!-- Checkbox icon -->
    <rect x="100" y="130" width="85" height="85" rx="16" fill="none" stroke="white" stroke-width="10"/>
    <polyline points="120,172 148,200 190,158" fill="none" stroke="white" stroke-width="10" stroke-linecap="round" stroke-linejoin="round"/>
    
    <!-- Lines representing list items -->
    <rect x="220" y="152" width="180" height="20" rx="10"/>
    <rect x="220" y="195" width="130" height="16" rx="8" opacity="0.7"/>
    
    <!-- Second row -->
    <rect x="100" y="260" width="85" height="85" rx="16" fill="none" stroke="white" stroke-width="10"/>
    <rect x="220" y="282" width="180" height="20" rx="10"/>
    <rect x="220" y="325" width="150" height="16" rx="8" opacity="0.7"/>

    <!-- Third row (unchecked) -->
    <rect x="100" y="390" width="85" height="85" rx="16" fill="none" stroke="white" stroke-width="10"/>
    <rect x="220" y="412" width="180" height="20" rx="10"/>
    <rect x="220" y="455" width="120" height="16" rx="8" opacity="0.7"/>
  </g>
  <!-- Sync icon in corner -->
  <circle cx="405" cy="405" r="75" fill="#1D4ED8"/>
  <path d="M405 360 L405 392 L437 392" fill="none" stroke="white" stroke-width="8" stroke-linecap="round" stroke-linejoin="round"/>
  <path d="M450 405 A45 45 0 1 1 405 360" fill="none" stroke="white" stroke-width="8" stroke-linecap="round"/>
</svg>